<?xml version="1.0" encoding="UTF-8"?>
<svg xmlns="http://www.w3.org/2000/svg" xmlns:xlink="http://www.w3.org/1999/xlink" viewBox="0 0 22 22" width="22px" height="22px">
<g id="surface34934850">
<path style=" stroke:none;fill-rule:nonzero;fill:rgb(10.588235%,37.254903%,75.686276%);fill-opacity:1;" d="M 19.25 5.695312 C 18.644531 5.964844 17.992188 6.144531 17.304688 6.230469 C 18.003906 5.8125 18.539062 5.152344 18.792969 4.371094 C 18.140625 4.753906 17.414062 5.035156 16.640625 5.183594 C 16.027344 4.53125 15.148438 4.125 14.175781 4.125 C 12.304688 4.125 10.789062 5.628906 10.789062 7.480469 C 10.789062 7.742188 10.820312 7.996094 10.878906 8.246094 C 8.0625 8.105469 5.570312 6.765625 3.898438 4.738281 C 3.605469 5.234375 3.441406 5.8125 3.441406 6.425781 C 3.441406 7.589844 4.039062 8.617188 4.945312 9.222656 C 4.390625 9.203125 3.871094 9.050781 3.410156 8.800781 C 3.410156 8.8125 3.410156 8.828125 3.410156 8.839844 C 3.410156 10.46875 4.578125 11.824219 6.125 12.132812 C 5.84375 12.210938 5.542969 12.253906 5.238281 12.253906 C 5.019531 12.253906 4.804688 12.226562 4.597656 12.191406 C 5.03125 13.519531 6.28125 14.492188 7.761719 14.523438 C 6.601562 15.421875 5.140625 15.957031 3.554688 15.957031 C 3.28125 15.957031 3.011719 15.941406 2.75 15.910156 C 4.246094 16.859375 6.027344 17.417969 7.9375 17.417969 C 14.164062 17.417969 17.570312 12.304688 17.570312 7.867188 C 17.570312 7.722656 17.566406 7.578125 17.558594 7.433594 C 18.226562 6.964844 18.796875 6.375 19.25 5.695312 "/>
</g>
</svg>
