<?xml version="1.0" encoding="UTF-8"?>
<svg xmlns="http://www.w3.org/2000/svg" xmlns:xlink="http://www.w3.org/1999/xlink" viewBox="0 0 22 22" width="22px" height="22px">
<g id="surface34941960">
<path style=" stroke:none;fill-rule:nonzero;fill:rgb(10.588235%,37.254903%,75.686276%);fill-opacity:1;" d="M 1.375 1.375 L 20.625 1.375 L 20.625 20.625 L 1.375 20.625 Z M 1.375 1.375 "/>
<path style=" stroke:none;fill-rule:nonzero;fill:rgb(10.588235%,37.254903%,75.686276%);fill-opacity:1;" d="M 20.351562 1.648438 L 20.351562 20.351562 L 1.648438 20.351562 L 1.648438 1.648438 L 20.351562 1.648438 M 20.898438 1.101562 L 1.101562 1.101562 L 1.101562 20.898438 L 20.898438 20.898438 Z M 20.898438 1.101562 "/>
<path style=" stroke:none;fill-rule:nonzero;fill:rgb(100%,100%,100%);fill-opacity:1;" d="M 14.851562 20.351562 L 14.851562 13.199219 L 17.5625 13.199219 L 17.945312 10.449219 L 14.851562 10.449219 L 14.851562 8.589844 C 14.851562 7.726562 15.234375 7.140625 16.472656 7.140625 L 18.148438 7.136719 L 18.148438 4.523438 C 17.878906 4.488281 16.839844 4.40625 15.75 4.40625 C 13.476562 4.40625 12.101562 5.792969 12.101562 8.34375 L 12.101562 10.449219 L 9.351562 10.449219 L 9.351562 13.199219 L 12.101562 13.199219 L 12.101562 20.351562 Z M 14.851562 20.351562 "/>
</g>
</svg>
