<?xml version="1.0" encoding="UTF-8"?>
<svg xmlns="http://www.w3.org/2000/svg" xmlns:xlink="http://www.w3.org/1999/xlink" viewBox="0 0 22 22" width="22px" height="22px">
<g id="surface34945481">
<path style=" stroke:none;fill-rule:nonzero;fill:rgb(10.588235%,37.254903%,75.686276%);fill-opacity:1;" d="M 7.5625 4.8125 C 4.144531 4.8125 1.375 7.582031 1.375 11 C 1.375 14.417969 4.144531 17.1875 7.5625 17.1875 C 10.980469 17.1875 13.75 14.417969 13.75 11 C 13.75 10.574219 13.703125 10.160156 13.621094 9.761719 L 13.589844 9.625 L 7.5625 9.625 L 7.5625 11.6875 L 11.6875 11.6875 C 11.359375 13.636719 9.605469 15.125 7.5625 15.125 C 5.285156 15.125 3.4375 13.277344 3.4375 11 C 3.4375 8.722656 5.285156 6.875 7.5625 6.875 C 8.59375 6.875 9.535156 7.257812 10.257812 7.882812 L 11.734375 6.433594 C 10.636719 5.429688 9.171875 4.8125 7.5625 4.8125 Z M 17.1875 7.5625 L 17.1875 9.625 L 15.125 9.625 L 15.125 11 L 17.1875 11 L 17.1875 13.0625 L 18.5625 13.0625 L 18.5625 11 L 20.625 11 L 20.625 9.625 L 18.5625 9.625 L 18.5625 7.5625 Z M 17.1875 7.5625 "/>
</g>
</svg>
