<?xml version="1.0" encoding="UTF-8"?>
<svg xmlns="http://www.w3.org/2000/svg" xmlns:xlink="http://www.w3.org/1999/xlink" viewBox="0 0 22 22" width="22px" height="22px">
<g id="surface34949795">
<path style=" stroke:none;fill-rule:nonzero;fill:rgb(10.588235%,37.254903%,75.686276%);fill-opacity:1;" d="M 17.601562 2.933594 L 4.398438 2.933594 C 3.589844 2.933594 2.933594 3.589844 2.933594 4.398438 L 2.933594 17.601562 C 2.933594 18.410156 3.589844 19.066406 4.398438 19.066406 L 17.601562 19.066406 C 18.410156 19.066406 19.066406 18.410156 19.066406 17.601562 L 19.066406 4.398438 C 19.066406 3.589844 18.410156 2.933594 17.601562 2.933594 Z M 8.03125 16.132812 L 5.871094 16.132812 L 5.871094 9.171875 L 8.03125 9.171875 Z M 6.929688 8.175781 C 6.230469 8.175781 5.667969 7.613281 5.667969 6.917969 C 5.667969 6.21875 6.234375 5.65625 6.929688 5.65625 C 7.625 5.65625 8.191406 6.222656 8.191406 6.917969 C 8.191406 7.613281 7.625 8.175781 6.929688 8.175781 Z M 16.136719 16.132812 L 13.972656 16.132812 L 13.972656 12.75 C 13.972656 11.941406 13.960938 10.902344 12.851562 10.902344 C 11.722656 10.902344 11.550781 11.78125 11.550781 12.691406 L 11.550781 16.132812 L 9.390625 16.132812 L 9.390625 9.171875 L 11.464844 9.171875 L 11.464844 10.125 L 11.496094 10.125 C 11.78125 9.578125 12.488281 9 13.539062 9 C 15.730469 9 16.136719 10.441406 16.136719 12.316406 Z M 16.136719 16.132812 "/>
</g>
</svg>
